HIERARCHY
ROOT hip
{
  OFFSET 0 0 0
  CHANNELS 6 Xposition Yposition Zposition Zrotation Yrotation Xrotation
  JOINT abdomen
  {
    OFFSET 0 20.6881 -0.73152
    CHANNELS 3 Zrotation Xrotation Yrotation
    JOINT chest
    {
      OFFSET 0 11.7043 -0.48768
      CHANNELS 3 Zrotation Xrotation Yrotation
      JOINT neck
      {
        OFFSET 0 22.1894 -2.19456
        CHANNELS 3 Zrotation Xrotation Yrotation
        JOINT head
        {
          OFFSET -0.24384 7.07133 1.2192
          CHANNELS 3 Zrotation Xrotation Yrotation
          JOINT leftEye
          {
            OFFSET 4.14528 8.04674 8.04672
            CHANNELS 3 Zrotation Xrotation Yrotation
            End Site
            {
              OFFSET 1 0 0
            }
          }
          JOINT rightEye
          {
            OFFSET -3.6576 8.04674 8.04672
            CHANNELS 3 Zrotation Xrotation Yrotation
            End Site
            {
              OFFSET 1 0 0
            }
          }
        }
      }
      JOINT rCollar
      {
        OFFSET -2.68224 19.2634 -4.8768
        CHANNELS 3 Zrotation Xrotation Yrotation
        JOINT rShldr
        {
          OFFSET -8.77824 -1.95073 1.46304
          CHANNELS 3 Zrotation Xrotation Yrotation
          JOINT rForeArm
          {
            OFFSET -28.1742 -1.7115 0.48768
            CHANNELS 3 Zrotation Xrotation Yrotation
            JOINT rHand
            {
              OFFSET -22.5879 0.773209 7.07136
              CHANNELS 3 Zrotation Xrotation Yrotation
              JOINT rThumb1
              {
                OFFSET -1.2192 -0.487915 3.41376
                CHANNELS 3 Zrotation Xrotation Yrotation
                JOINT rThumb2
                {
                  OFFSET -3.37035 -0.52449 3.41376
                  CHANNELS 3 Zrotation Xrotation Yrotation
                  End Site
                  {
                    OFFSET -1.78271 -1.18214 1.43049
                  }
                }
              }
              JOINT rIndex1
              {
                OFFSET -7.75947 0.938293 5.60832
                CHANNELS 3 Zrotation Xrotation Yrotation
                JOINT rIndex2
                {
                  OFFSET -2.54057 -0.884171 1.56538
                  CHANNELS 3 Zrotation Xrotation Yrotation
                  End Site
                  {
                    OFFSET -1.62519 -0.234802 1.16502
                  }
                }
              }
              JOINT rMid1
              {
                OFFSET -8.24714 1.18213 3.41376
                CHANNELS 3 Zrotation Xrotation Yrotation
                JOINT rMid2
                {
                  OFFSET -3.10165 -0.590103 1.0647
                  CHANNELS 3 Zrotation Xrotation Yrotation
                  End Site
                  {
                    OFFSET -2.48547 -0.328903 0.83742
                  }
                }
              }
              JOINT rRing1
              {
                OFFSET -8.82822 0.546677 1.51678
                CHANNELS 3 Zrotation Xrotation Yrotation
                JOINT rRing2
                {
                  OFFSET -2.60934 -0.819778 -0.0198488
                  CHANNELS 3 Zrotation Xrotation Yrotation
                  End Site
                  {
                    OFFSET -2.33842 -0.294052 0.168128
                  }
                }
              }
              JOINT rPinky1
              {
                OFFSET -8.27202 -0.0477905 -0.4584
                CHANNELS 3 Zrotation Xrotation Yrotation
                JOINT rPinky2
                {
                  OFFSET -1.82734 -0.647385 -0.700984
                  CHANNELS 3 Zrotation Xrotation Yrotation
                  End Site
                  {
                    OFFSET -1.69225 -0.51767 -0.607171
                  }
                }
              }
            }
          }
        }
      }
      JOINT lCollar
      {
        OFFSET 2.68224 19.2634 -4.8768
        CHANNELS 3 Zrotation Xrotation Yrotation
        JOINT lShldr
        {
          OFFSET 8.77824 -1.95073 1.46304
          CHANNELS 3 Zrotation Xrotation Yrotation
          JOINT lForeArm
          {
            OFFSET 28.1742 -1.7115 0.48768
            CHANNELS 3 Zrotation Xrotation Yrotation
            JOINT lHand
            {
              OFFSET 22.5879 0.773209 7.07136
              CHANNELS 3 Zrotation Xrotation Yrotation
              JOINT lThumb1
              {
                OFFSET 1.2192 -0.487915 3.41376
                CHANNELS 3 Zrotation Xrotation Yrotation
                JOINT lThumb2
                {
                  OFFSET 3.37035 -0.52449 3.41376
                  CHANNELS 3 Zrotation Xrotation Yrotation
                  End Site
                  {
                    OFFSET 1.78271 -1.18214 1.43049
                  }
                }
              }
              JOINT lIndex1
              {
                OFFSET 7.75947 0.938293 5.60832
                CHANNELS 3 Zrotation Xrotation Yrotation
                JOINT lIndex2
                {
                  OFFSET 2.54057 -0.884171 1.56538
                  CHANNELS 3 Zrotation Xrotation Yrotation
                  End Site
                  {
                    OFFSET 1.62519 -0.234802 1.16502
                  }
                }
              }
              JOINT lMid1
              {
                OFFSET 8.24714 1.18213 3.41376
                CHANNELS 3 Zrotation Xrotation Yrotation
                JOINT lMid2
                {
                  OFFSET 3.10165 -0.590103 1.0647
                  CHANNELS 3 Zrotation Xrotation Yrotation
                  End Site
                  {
                    OFFSET 2.48547 -0.328903 0.83742
                  }
                }
              }
              JOINT lRing1
              {
                OFFSET 8.82822 0.546677 1.51678
                CHANNELS 3 Zrotation Xrotation Yrotation
                JOINT lRing2
                {
                  OFFSET 2.60934 -0.819778 -0.0198488
                  CHANNELS 3 Zrotation Xrotation Yrotation
                  End Site
                  {
                    OFFSET 2.33842 -0.294052 0.168128
                  }
                }
              }
              JOINT lPinky1
              {
                OFFSET 8.27202 -0.0477905 -0.4584
                CHANNELS 3 Zrotation Xrotation Yrotation
                JOINT lPinky2
                {
                  OFFSET 1.82734 -0.647385 -0.700984
                  CHANNELS 3 Zrotation Xrotation Yrotation
                  End Site
                  {
                    OFFSET 1.69225 -0.51767 -0.607171
                  }
                }
              }
            }
          }
        }
      }
    }
  }
  JOINT rButtock
  {
    OFFSET -8.77824 4.35084 1.2192
    CHANNELS 3 Zrotation Xrotation Yrotation
    JOINT rThigh
    {
      OFFSET 0 -1.70687 -2.19456
      CHANNELS 3 Zrotation Xrotation Yrotation
      JOINT rShin
      {
        OFFSET 0 -36.8199 0.73152
        CHANNELS 3 Zrotation Xrotation Yrotation
        JOINT rFoot
        {
          OFFSET 0.73152 -45.1104 -5.12064
          CHANNELS 3 Zrotation Xrotation Yrotation
          End Site
          {
            OFFSET -1.1221 -3.69964 12.103
          }
        }
      }
    }
  }
  JOINT lButtock
  {
    OFFSET 8.77824 4.35084 1.2192
    CHANNELS 3 Zrotation Xrotation Yrotation
    JOINT lThigh
    {
      OFFSET 0 -1.70687 -2.19456
      CHANNELS 3 Zrotation Xrotation Yrotation
      JOINT lShin
      {
        OFFSET 0 -36.8199 0.73152
        CHANNELS 3 Zrotation Xrotation Yrotation
        JOINT lFoot
        {
          OFFSET -0.73152 -45.1104 -5.12064
          CHANNELS 3 Zrotation Xrotation Yrotation
          End Site
          {
            OFFSET 1.1221 -3.69964 12.103
          }
        }
      }
    }
  }
}
MOTION
Frames:	4
Frame Time:	0.00833333
-37.5381 83.2333 23.1203 -129.885 -80.9774 137.646 6.69307 -5.25964 2.72117 0.437871 -0.690898 0.51691 -7.4485 0.555295 -4.08508 12.8087 -18.5655 -4.15314 -0.0 0.0 0.0 -0.0 0.0 0.0 8.99202e-15 -1.60651e-13 2.92831e-14 43.2126 39.023 52.6417 -23.3185 -17.8742 47.5351 -2.50846 -40.2612 -6.83587 1.28189e-10 7.79964e-10 1.81967e-09 1.62302e-10 1.3669e-09 3.14812e-09 1.28195e-10 7.79961e-10 1.81966e-09 7.73091 5.47488 0.417314 1.28189e-10 7.79965e-10 1.81967e-09 2.90554 0.965183 0.102902 1.28197e-10 7.79964e-10 1.81967e-09 10.2786 0.731801 0.0259123 1.28179e-10 7.79965e-10 1.81968e-09 2.22167 -0.733487 -0.20892 8.97332e-15 -1.60645e-13 2.90086e-14 -22.6535 41.4631 -77.428 19.6256 -12.548 -37.7783 0.000867376 0.856905 -0.120438 1.13745e-09 1.98352e-09 -6.37707e-10 1.96787e-09 3.43805e-09 -1.10975e-09 1.13746e-09 1.98353e-09 -6.37704e-10 -7.73091 5.47488 -0.417314 1.13745e-09 1.98352e-09 -6.37704e-10 -2.90554 0.965183 -0.102902 1.13745e-09 1.98352e-09 -6.37711e-10 -10.2786 0.731801 -0.0259123 1.13746e-09 1.98352e-09 -6.3772e-10 -2.22167 -0.733487 0.20892 -2.03217e-16 0.0 -3.88251e-19 6.9397 -11.3782 -2.42699 -0.311057 36.4535 0.448643 -0.295773 -2.82392 0.9831 2.03217e-16 0.0 3.88251e-19 6.56786 -34.4232 -3.67306 0.0758433 20.9397 0.200361 0.410512 3.41702 4.10429
-38.3557 83.2611 23.216 -130.863 -81.0911 138.464 6.46831 -5.33643 2.62373 0.484035 -0.744758 0.486551 -7.45664 0.696718 -4.0931 12.8304 -18.8393 -4.15283 -0.0 0.0 0.0 -0.0 0.0 0.0 6.98168e-15 -9.14114e-13 9.79015e-14 42.9055 37.6564 53.5082 -23.6632 -18.4811 48.5612 -2.40849 -39.6157 -6.68037 -1.38046e-10 6.97327e-10 1.63212e-09 -2.9011e-10 1.21383e-09 2.81388e-09 -1.38039e-10 6.97323e-10 1.63212e-09 7.73091 5.47488 0.417314 -1.38046e-10 6.97328e-10 1.63212e-09 2.90554 0.965183 0.102902 -1.38039e-10 6.97327e-10 1.63212e-09 10.2786 0.731801 0.0259123 -1.38055e-10 6.97329e-10 1.63213e-09 2.22167 -0.733487 -0.20892 6.98336e-15 -9.14108e-13 9.7653e-14 -23.1307 39.5483 -77.4086 19.6536 -12.5822 -37.8453 0.00125784 1.01265 -0.142333 9.83461e-10 1.93627e-09 -7.01809e-10 1.70174e-09 3.35608e-09 -1.22e-09 9.83462e-10 1.93628e-09 -7.01805e-10 -7.73091 5.47488 -0.417314 9.83461e-10 1.93627e-09 -7.01809e-10 -2.90554 0.965183 -0.102902 9.83457e-10 1.93627e-09 -7.01815e-10 -10.2786 0.731801 -0.0259123 9.83466e-10 1.93627e-09 -7.01824e-10 -2.22167 -0.733487 0.20892 -2.03217e-16 0.0 -3.88251e-19 6.43121 -11.807 -2.59767 -0.334817 37.8039 0.477027 -0.334992 -1.95079 0.775765 2.03217e-16 0.0 3.88251e-19 6.172 -33.9652 -3.6069 0.0761583 21.2107 0.200874 0.41334 3.35076 3.82911
-39.1771 83.2947 23.3127 -131.818 -81.2165 139.259 6.23475 -5.41228 2.52057 0.533437 -0.803311 0.454838 -7.46754 0.84299 -4.10054 12.8602 -19.1348 -4.14773 -0.0 0.0 0.0 -0.0 0.0 0.0 1.80853e-14 -1.82154e-12 1.45183e-13 42.7006 36.2518 54.3185 -24.0121 -19.1213 49.639 -2.30614 -38.933 -6.51899 -2.02309e-10 4.32208e-10 8.00906e-10 -3.7564e-10 7.47388e-10 1.37317e-09 -2.02303e-10 4.32204e-10 8.009e-10 7.73091 5.47488 0.417314 -2.02309e-10 4.32209e-10 8.00906e-10 2.90554 0.965183 0.102902 -2.02303e-10 4.32208e-10 8.00904e-10 10.2786 0.731801 0.0259123 -2.02318e-10 4.32211e-10 8.00911e-10 2.22167 -0.733487 -0.20892 1.80757e-14 -1.82153e-12 1.44953e-13 -23.7011 37.5946 -77.3789 19.6685 -12.6003 -37.8813 0.00161475 1.12871 -0.158651 -4.46455e-10 6.0541e-10 -6.91825e-10 -7.70925e-10 1.04993e-09 -1.19677e-09 -4.46455e-10 6.05412e-10 -6.91822e-10 -7.73091 5.47488 -0.417314 -4.46455e-10 6.05408e-10 -6.91827e-10 -2.90554 0.965183 -0.102902 -4.4646e-10 6.05407e-10 -6.91832e-10 -10.2786 0.731801 -0.0259123 -4.46448e-10 6.05407e-10 -6.91841e-10 -2.22167 -0.733487 0.20892 -2.03217e-16 0.0 -3.88251e-19 5.91416 -12.2763 -2.77259 -0.360644 39.1725 0.507048 -0.375602 -1.06195 0.504818 2.03217e-16 0.0 3.88251e-19 5.76507 -33.4825 -3.55328 0.0763336 21.467 0.200852 0.416887 3.26327 3.55793
-40.0011 83.3342 23.4096 -132.751 -81.3532 140.033 5.99233 -5.48753 2.41172 0.586031 -0.866903 0.421739 -7.48067 0.99525 -4.10754 12.8973 -19.4515 -4.13865 -0.0 0.0 0.0 -0.0 0.0 0.0 3.86741e-14 -2.86965e-12 1.8141e-13 42.5926 34.8108 55.0847 -24.3583 -19.7834 50.7711 -2.2021 -38.2111 -6.35199 -1.41405e-10 3.65289e-11 -4.84269e-10 -2.32113e-10 5.62747e-11 -8.48456e-10 -1.41398e-10 3.65255e-11 -4.84276e-10 7.73091 5.47488 0.417314 -1.41405e-10 3.65292e-11 -4.84269e-10 2.90554 0.965183 0.102902 -1.41398e-10 3.65281e-11 -4.84271e-10 10.2786 0.731801 0.0259123 -1.41413e-10 3.6532e-11 -4.84265e-10 2.22167 -0.733487 -0.20892 3.86339e-14 -2.86965e-12 1.81195e-13 -24.3557 35.6004 -77.3561 19.6717 -12.6043 -37.8893 0.00184286 1.21004 -0.170086 -2.74661e-09 -1.60491e-09 -6.30498e-10 -4.74849e-09 -2.78009e-09 -1.08106e-09 -2.74661e-09 -1.60491e-09 -6.30496e-10 -7.73091 5.47488 -0.417314 -2.74661e-09 -1.60491e-09 -6.30502e-10 -2.90554 0.965183 -0.102902 -2.74662e-09 -1.60491e-09 -6.30504e-10 -10.2786 0.731801 -0.0259123 -2.7466e-09 -1.60491e-09 -6.30513e-10 -2.22167 -0.733487 0.20892 -2.03217e-16 0.0 -3.88251e-19 5.38634 -12.7863 -2.95288 -0.388865 40.5647 0.539166 -0.414015 -0.150515 0.172453 2.03217e-16 0.0 3.88251e-19 5.3466 -32.9762 -3.50689 0.0764152 21.7166 0.200177 0.421048 3.15327 3.286
